<?xml version="1.0" standalone="no"?>
<!DOCTYPE svg PUBLIC "-//W3C//DTD SVG 20010904//EN"
 "http://www.w3.org/TR/2001/REC-SVG-20010904/DTD/svg10.dtd">
<svg version="1.0" xmlns="http://www.w3.org/2000/svg"
 width="250.000000pt" height="250.000000pt" viewBox="0 0 250.000000 250.000000"
 preserveAspectRatio="xMidYMid meet">
<metadata>
Created by potrace 1.14, written by Peter Selinger 2001-2017
</metadata>
<g transform="translate(0.000000,250.000000) scale(0.100000,-0.100000)"
fill="#000000" stroke="none">
<path d="M515 2486 c-46 -11 -111 -73 -123 -118 -5 -18 -8 -557 -8 -1198 l1
-1165 80 1 c111 1 162 9 220 35 147 65 252 199 273 349 3 25 6 95 6 156 l1
110 375 1 c344 1 381 3 454 22 278 73 469 273 545 571 3 14 6 169 6 345 0 319
0 320 -26 397 -90 264 -311 456 -570 494 -75 11 -1187 11 -1234 0z"/>
</g>
</svg>
